<svg width="580" height="400" xmlns="http://www.w3.org/2000/svg">
 <!-- Created with Method Draw - http://github.com/duopixel/Method-Draw/ -->
 <g>
  <title>background</title>
  <rect fill="#fff" id="canvas_background" height="402" width="582" y="-1" x="-1"/>
  <g display="none" overflow="visible" y="0" x="0" height="100%" width="100%" id="canvasGrid">
   <rect fill="url(#gridpattern)" stroke-width="0" y="0" x="0" height="100%" width="100%"/>
  </g>
 </g>
 <g>
  <title>Layer 1</title>
  <ellipse ry="129.5" rx="129.5" id="svg_12" cy="204.5" cx="278" stroke-opacity="null" stroke-width="0" stroke="#000" fill="#007f00"/>
  <path stroke="#000" id="svg_1" d="m277.637535,171.424991l0,-56.000004l42.000002,56.000004l-42.000002,0z" stroke-width="0" fill="#ffffff"/>
  <path stroke="#000" id="svg_2" d="m277.637521,211.42499l0,-56l58.000001,56l-58.000001,0z" stroke-width="0" fill="#ffffff"/>
  <path stroke="#000" id="svg_3" d="m277.637531,259.42499l0,-56l64.999988,56l-64.999988,0z" stroke-width="0" fill="#ffffff"/>
  <path stroke="#000" id="svg_5" d="m278.63752,170.42499l0,-56l-45.999962,56l45.999962,0z" stroke-width="0" fill="#ffffff"/>
  <path stroke="#000" id="svg_6" d="m278.637533,212.42499l0,-56l-58.999975,56l58.999975,0z" stroke-width="0" fill="#ffffff"/>
  <path stroke="#000" id="svg_7" d="m278.637524,259.42499l0,-56l-67.999981,56l67.999981,0z" stroke-width="0" fill="#ffffff"/>
  <rect id="svg_10" height="23" width="23" y="254" x="267.5" stroke-opacity="null" stroke-width="0" stroke="#000" fill="#ffffff"/>
 </g>
</svg>