<svg xmlns:dc="http://purl.org/dc/elements/1.1/" xmlns:cc="http://creativecommons.org/ns#" xmlns:rdf="http://www.w3.org/1999/02/22-rdf-syntax-ns#" xmlns:svg="http://www.w3.org/2000/svg" xmlns="http://www.w3.org/2000/svg" xmlns:sodipodi="http://sodipodi.sourceforge.net/DTD/sodipodi-0.dtd" xmlns:inkscape="http://www.inkscape.org/namespaces/inkscape" version="1.1" preserveAspectRatio="xMidYMid meet" viewBox="0 0 100 125" x="0px" y="0px"><g style="" display="inline"><path style="color:#000000;font-style:normal;font-variant:normal;font-weight:normal;font-stretch:normal;font-size:medium;line-height:normal;font-family:sans-serif;font-variant-ligatures:normal;font-variant-position:normal;font-variant-caps:normal;font-variant-numeric:normal;font-variant-alternates:normal;font-feature-settings:normal;text-indent:0;text-align:start;text-decoration:none;text-decoration-line:none;text-decoration-style:solid;text-decoration-color:#000000;letter-spacing:normal;word-spacing:normal;text-transform:none;writing-mode:lr-tb;direction:ltr;text-orientation:mixed;dominant-baseline:auto;baseline-shift:baseline;text-anchor:start;white-space:normal;shape-padding:0;clip-rule:nonzero;display:inline;overflow:visible;visibility:visible;opacity:1;isolation:auto;mix-blend-mode:normal;color-interpolation:sRGB;color-interpolation-filters:linearRGB;solid-color:#000000;solid-opacity:1;vector-effect:none;fill:#000000;fill-opacity:1;fill-rule:evenodd;stroke:none;stroke-width:3.36758447;stroke-linecap:round;stroke-linejoin:bevel;stroke-miterlimit:4;stroke-dasharray:none;stroke-dashoffset:0;stroke-opacity:1;paint-order:stroke fill markers;color-rendering:auto;image-rendering:auto;shape-rendering:auto;text-rendering:auto;enable-background:accumulate" d="m 50.091351,5.0003712 c -0.03168,-0.00425 -0.0676,0.02921 -0.09965,0.038748 -0.02743,-0.00652 -0.05313,-0.036807 -0.08028,-0.033221 v 0.066428 c -1.241499,0.800445 -2.776093,11.1283868 -5.212355,15.9028068 -4.88964,9.582385 -20.370471,13.882895 -20.043904,14.136753 0.355741,0.965471 11.366164,3.013829 18.665382,0.714172 -3.230108,6.815132 -23.134531,14.888269 -22.986407,15.590011 0.346946,1.643675 14.339942,0.648418 22.560118,-3.745256 -5.116512,8.641723 -22.997724,19.171832 -22.742813,19.589934 0.925051,1.517259 14.367399,0.07461 23.293668,-6.524442 -8.429092,10.89116 -26.175262,18.858904 -25.790506,19.390628 1.075444,1.486244 17.254862,1.993047 27.48459,-6.286383 -0.01679,6.94335 0.157646,13.886694 -2.640779,20.830047 2.471252,-0.05873 4.941785,0.05265 7.413006,0.310029 V 95 c 0.0424,-0.0045 0.08217,-0.0038 0.124564,-0.0084 0.01749,0.0018 0.03787,8.28e-4 0.05536,0.0028 V 94.986 c 2.471217,-0.25738 4.938989,-0.368756 7.410238,-0.310029 -2.798425,-6.943353 -2.623984,-13.886698 -2.640779,-20.830048 10.229728,8.279429 26.409146,7.772626 27.484591,6.286384 0.384755,-0.531724 -17.358647,-8.49947 -25.787739,-19.39063 8.926269,6.599045 22.365849,8.041703 23.290901,6.524442 0.254909,-0.4181 -17.626302,-10.948211 -22.742814,-19.589934 8.220176,4.393675 22.213173,5.388931 22.560119,3.745256 0.148123,-0.701741 -19.7563,-8.774878 -22.986408,-15.59001 7.299219,2.299725 18.30964,0.251298 18.665382,-0.714173 C 75.671409,34.863579 60.193346,30.563071 55.303708,20.980686 52.867446,16.206264 51.332849,5.8783212 50.091351,5.0778791 Z"/></g><text x="0" y="115" fill="#000000" font-size="5px" font-weight="bold" font-family="'Helvetica Neue', Helvetica, Arial-Unicode, Arial, Sans-serif">Created by David Christensen</text><text x="0" y="120" fill="#000000" font-size="5px" font-weight="bold" font-family="'Helvetica Neue', Helvetica, Arial-Unicode, Arial, Sans-serif">from the Noun Project</text></svg>