<svg width="580" height="400" xmlns="http://www.w3.org/2000/svg">
 <!-- Created with Method Draw - http://github.com/duopixel/Method-Draw/ -->

 <g>
  <title>background</title>
  <rect x="-1" y="-1" width="582" height="402" id="canvas_background" fill="none"/>
  <g id="canvasGrid" display="none">
   <rect id="svg_4" width="100%" height="100%" x="0" y="0" stroke-width="0" fill="url(#gridpattern)"/>
  </g>
 </g>
 <g>
  <title>Layer 1</title>
  <ellipse fill="#f9f104" stroke="#000" stroke-width="0" stroke-opacity="null" cx="278" cy="204.5" id="svg_12" rx="129.5" ry="129.5"/>
  <path fill="#000000" stroke-width="0" d="m277.63754,171.42499l0,-56l42,56l-42,0z" id="svg_1" stroke="#000"/>
  <path fill="#000000" stroke-width="0" d="m277.63752,211.42499l0,-56l58,56l-58,0z" id="svg_2" stroke="#000"/>
  <path fill="#000000" stroke-width="0" d="m277.63753,259.42499l0,-56l64.99999,56l-64.99999,0z" id="svg_3" stroke="#000"/>
  <path fill="#000000" stroke-width="0" d="m278.63752,170.42499l0,-56l-45.99996,56l45.99996,0z" id="svg_5" stroke="#000"/>
  <path fill="#000000" stroke-width="0" d="m278.63753,212.42499l0,-56l-58.99997,56l58.99997,0z" id="svg_6" stroke="#000"/>
  <path fill="#000000" stroke-width="0" d="m278.63752,259.42499l0,-56l-67.99998,56l67.99998,0z" id="svg_7" stroke="#000"/>
  <rect fill="#000000" stroke="#000" stroke-width="0" stroke-opacity="null" x="267.5" y="254" width="23" height="23" id="svg_10"/>
 </g>
</svg>